<?xml version="1.0" encoding="UTF-8"?>
<svg width="1634px" height="1634px" viewBox="0 0 1634 1634" version="1.1" xmlns="http://www.w3.org/2000/svg" xmlns:xlink="http://www.w3.org/1999/xlink">
    <title>Group</title>
    <g id="Page-1" stroke="none" stroke-width="1" fill="none" fill-rule="evenodd">
        <g id="shutterstock_1954824304" transform="translate(-183.000000, -183.000000)">
            <g id="Group" transform="translate(183.000000, 183.000000)">
                <circle id="Oval" fill="#D0011B" cx="817" cy="817" r="817"></circle>
                <path d="M748.115,968.65 L272.053,1031.66 C258.366,1033.47 248.737,1046.04 250.55,1059.72 C252.214,1072.3 262.953,1081.45 275.302,1081.45 C276.395,1081.45 277.5,1081.37 278.614,1081.23 L754.676,1018.22 C768.363,1016.41 777.991,1003.84 776.179,990.15 C774.367,976.47 761.8,966.84 748.115,968.65 Z M264.993,700.369 L741.055,916.63 C744.409,918.16 747.922,918.88 751.381,918.88 C760.885,918.88 769.97,913.43 774.157,904.21 C779.867,891.64 774.306,876.82 761.735,871.11 L285.673,654.847 C273.105,649.139 258.283,654.696 252.572,667.268 C246.861,679.838 252.422,694.659 264.993,700.369 Z M1461.95,1144.98 L895.28,1069.98 C888.14,1069.03 880.94,1071.21 875.52,1075.96 C870.11,1080.71 867,1087.56 867,1094.76 C867,1122.33 844.57,1144.76 817,1144.76 C789.43,1144.76 767,1122.33 767,1094.76 C767,1087.56 763.894,1080.71 758.477,1075.96 C753.061,1071.21 745.861,1069.03 738.72,1069.98 L172.053,1144.98 C158.366,1146.79 148.737,1159.35 150.55,1173.04 C152.36,1186.73 164.917,1196.36 178.614,1194.54 L720.988,1122.76 C733.128,1164.31 771.576,1194.76083 817,1194.76083 C862.42,1194.76083 900.87,1164.31 913.01,1122.76 L1455.39,1194.54 C1456.5,1194.69 1457.61,1194.76083 1458.7,1194.76083 C1471.05,1194.76083 1481.79,1185.62 1483.45,1173.04 C1485.26,1159.35 1475.63,1146.79 1461.95,1144.98 Z M1361.95,1031.66 L885.88,968.65 C872.19,966.84 859.63,976.47 857.82,990.15 C856.01,1003.84 865.64,1016.41 879.32,1018.22 L1355.39,1081.23 C1356.5,1081.37 1357.6,1081.45 1358.7,1081.45 C1371.05,1081.45 1381.79,1072.3 1383.45,1059.72 C1385.26,1046.04 1375.63,1033.47 1361.95,1031.66 Z M1058.67,489.24 C1141.38,489.24 1208.67,556.53 1208.67,639.24 C1208.67,721.95 1141.38,789.24 1058.67,789.24 C975.96,789.24 908.67,721.95 908.67,639.24 C908.67,556.53 975.96,489.24 1058.67,489.24 Z M398.874,649.523 C412.637,650.67 424.711,640.43 425.851,626.67 C432.23,549.606 497.89,489.24 575.333,489.24 C658.043,489.24 725.333,556.53 725.333,639.24 C725.333,678.464 710.292,715.562 682.981,743.701 C673.365,753.609 673.602,769.437 683.509,779.052 C688.366,783.767 694.646,786.113 700.918,786.113 C707.442,786.113 713.958,783.576 718.86,778.525 C749.414,747.045 768.444,707.155 773.782,664.24 L860.23,664.24 C872.57,762.765 956.85,839.24 1058.67,839.24 C1168.95,839.24 1258.67,749.521 1258.67,639.24 C1258.67,528.959 1168.95,439.24 1058.67,439.24 C956.85,439.24 872.57,515.716 860.23,614.24 L773.773,614.24 C761.433,515.716 677.148,439.24 575.333,439.24 C524.826,439.24 476.604,458.118 439.55,492.396 C402.709,526.477 380.148,572.698 376.022,622.546 C374.882,636.306 385.114,648.384 398.874,649.523 Z M857.82,890.59 C856.01,904.28 865.64,916.85 879.32,918.66 L1355.39,981.67 C1356.5,981.81 1357.6,981.89 1358.7,981.89 C1371.05,981.89 1381.79,972.74 1383.45,960.16 C1385.26,946.47 1375.63,933.91 1361.95,932.1 L885.88,869.09 C872.19,867.28 859.63,876.91 857.82,890.59 L857.82,890.59 Z" id="Fill-3" fill="#EFE8E8"></path>
            </g>
        </g>
    </g>
</svg>
